<svg height="4430" width="720" xmlns="http://www.w3.org/2000/svg">
<rect height="4430" fill="#555" width="720"></rect>
<text fill="#7f7" font-family="Courier New" font-size="12" xml:space="preserve">
<tspan x="10" y="26">34 megabytes installed</tspan>
<tspan x="10" y="42"></tspan>
<tspan x="10" y="58">node_modules</tspan>
<tspan x="10" y="74">└─┬ gulp-iconfont@8.0.1 </tspan>
<tspan x="10" y="90">  ├─┬ gulp-cond@1.0.0 </tspan>
<tspan x="10" y="106">  │ └─┬ readable-stream@2.2.9 </tspan>
<tspan x="10" y="122">  │   ├── buffer-shims@1.0.0 </tspan>
<tspan x="10" y="138">  │   ├── core-util-is@1.0.2 </tspan>
<tspan x="10" y="154">  │   ├── inherits@2.0.3 </tspan>
<tspan x="10" y="170">  │   ├── isarray@1.0.0 </tspan>
<tspan x="10" y="186">  │   ├── process-nextick-args@1.0.7 </tspan>
<tspan x="10" y="202">  │   ├── string_decoder@1.0.0 </tspan>
<tspan x="10" y="218">  │   └── util-deprecate@1.0.2 </tspan>
<tspan x="10" y="234">  ├─┬ gulp-spawn@0.3.0 </tspan>
<tspan x="10" y="250">  │ ├─┬ gulp-util@2.2.20 </tspan>
<tspan x="10" y="266">  │ │ ├─┬ chalk@0.5.1 </tspan>
<tspan x="10" y="282">  │ │ │ ├── ansi-styles@1.1.0 </tspan>
<tspan x="10" y="298">  │ │ │ ├─┬ has-ansi@0.1.0 </tspan>
<tspan x="10" y="314">  │ │ │ │ └── ansi-regex@0.2.1 </tspan>
<tspan x="10" y="330">  │ │ │ ├── strip-ansi@0.3.0 </tspan>
<tspan x="10" y="346">  │ │ │ └── supports-color@0.2.0 </tspan>
<tspan x="10" y="362">  │ │ ├─┬ dateformat@1.0.12 </tspan>
<tspan x="10" y="378">  │ │ │ ├── get-stdin@4.0.1 </tspan>
<tspan x="10" y="394">  │ │ │ └─┬ meow@3.7.0 </tspan>
<tspan x="10" y="410">  │ │ │   ├─┬ camelcase-keys@2.1.0 </tspan>
<tspan x="10" y="426">  │ │ │   │ └── camelcase@2.1.1 </tspan>
<tspan x="10" y="442">  │ │ │   ├── decamelize@1.2.0 </tspan>
<tspan x="10" y="458">  │ │ │   ├─┬ loud-rejection@1.6.0 </tspan>
<tspan x="10" y="474">  │ │ │   │ ├─┬ currently-unhandled@0.4.1 </tspan>
<tspan x="10" y="490">  │ │ │   │ │ └── array-find-index@1.0.2 </tspan>
<tspan x="10" y="506">  │ │ │   │ └── signal-exit@3.0.2 </tspan>
<tspan x="10" y="522">  │ │ │   ├── map-obj@1.0.1 </tspan>
<tspan x="10" y="538">  │ │ │   ├── minimist@1.2.0 </tspan>
<tspan x="10" y="554">  │ │ │   ├─┬ normalize-package-data@2.3.6 </tspan>
<tspan x="10" y="570">  │ │ │   │ ├── hosted-git-info@2.4.2 </tspan>
<tspan x="10" y="586">  │ │ │   │ ├─┬ is-builtin-module@1.0.0 </tspan>
<tspan x="10" y="602">  │ │ │   │ │ └── builtin-modules@1.1.1 </tspan>
<tspan x="10" y="618">  │ │ │   │ └─┬ validate-npm-package-license@3.0.1 </tspan>
<tspan x="10" y="634">  │ │ │   │   ├─┬ spdx-correct@1.0.2 </tspan>
<tspan x="10" y="650">  │ │ │   │   │ └── spdx-license-ids@1.2.2 </tspan>
<tspan x="10" y="666">  │ │ │   │   └── spdx-expression-parse@1.0.4 </tspan>
<tspan x="10" y="682">  │ │ │   ├── object-assign@4.1.1 </tspan>
<tspan x="10" y="698">  │ │ │   ├─┬ read-pkg-up@1.0.1 </tspan>
<tspan x="10" y="714">  │ │ │   │ ├─┬ find-up@1.1.2 </tspan>
<tspan x="10" y="730">  │ │ │   │ │ ├── path-exists@2.1.0 </tspan>
<tspan x="10" y="746">  │ │ │   │ │ └─┬ pinkie-promise@2.0.1 </tspan>
<tspan x="10" y="762">  │ │ │   │ │   └── pinkie@2.0.4 </tspan>
<tspan x="10" y="778">  │ │ │   │ └─┬ read-pkg@1.1.0 </tspan>
<tspan x="10" y="794">  │ │ │   │   ├─┬ load-json-file@1.1.0 </tspan>
<tspan x="10" y="810">  │ │ │   │   │ ├─┬ parse-json@2.2.0 </tspan>
<tspan x="10" y="826">  │ │ │   │   │ │ └─┬ error-ex@1.3.1 </tspan>
<tspan x="10" y="842">  │ │ │   │   │ │   └── is-arrayish@0.2.1 </tspan>
<tspan x="10" y="858">  │ │ │   │   │ ├── pify@2.3.0 </tspan>
<tspan x="10" y="874">  │ │ │   │   │ └─┬ strip-bom@2.0.0 </tspan>
<tspan x="10" y="890">  │ │ │   │   │   └── is-utf8@0.2.1 </tspan>
<tspan x="10" y="906">  │ │ │   │   └── path-type@1.1.0 </tspan>
<tspan x="10" y="922">  │ │ │   ├─┬ redent@1.0.0 </tspan>
<tspan x="10" y="938">  │ │ │   │ ├─┬ indent-string@2.1.0 </tspan>
<tspan x="10" y="954">  │ │ │   │ │ └─┬ repeating@2.0.1 </tspan>
<tspan x="10" y="970">  │ │ │   │ │   └── is-finite@1.0.2 </tspan>
<tspan x="10" y="986">  │ │ │   │ └── strip-indent@1.0.1 </tspan>
<tspan x="10" y="1002">  │ │ │   └── trim-newlines@1.0.0 </tspan>
<tspan x="10" y="1018">  │ │ ├── lodash._reinterpolate@2.4.1 </tspan>
<tspan x="10" y="1034">  │ │ ├─┬ lodash.template@2.4.1 </tspan>
<tspan x="10" y="1050">  │ │ │ ├── lodash._escapestringchar@2.4.1 </tspan>
<tspan x="10" y="1066">  │ │ │ ├─┬ lodash.defaults@2.4.1 </tspan>
<tspan x="10" y="1082">  │ │ │ │ └── lodash._objecttypes@2.4.1 </tspan>
<tspan x="10" y="1098">  │ │ │ ├─┬ lodash.escape@2.4.1 </tspan>
<tspan x="10" y="1114">  │ │ │ │ ├─┬ lodash._escapehtmlchar@2.4.1 </tspan>
<tspan x="10" y="1130">  │ │ │ │ │ └── lodash._htmlescapes@2.4.1 </tspan>
<tspan x="10" y="1146">  │ │ │ │ └── lodash._reunescapedhtml@2.4.1 </tspan>
<tspan x="10" y="1162">  │ │ │ ├─┬ lodash.keys@2.4.1 </tspan>
<tspan x="10" y="1178">  │ │ │ │ ├── lodash._isnative@2.4.1 </tspan>
<tspan x="10" y="1194">  │ │ │ │ ├── lodash._shimkeys@2.4.1 </tspan>
<tspan x="10" y="1210">  │ │ │ │ └── lodash.isobject@2.4.1 </tspan>
<tspan x="10" y="1226">  │ │ │ ├── lodash.templatesettings@2.4.1 </tspan>
<tspan x="10" y="1242">  │ │ │ └── lodash.values@2.4.1 </tspan>
<tspan x="10" y="1258">  │ │ ├── minimist@0.2.0 </tspan>
<tspan x="10" y="1274">  │ │ ├─┬ through2@0.5.1 </tspan>
<tspan x="10" y="1290">  │ │ │ ├─┬ readable-stream@1.0.34 </tspan>
<tspan x="10" y="1306">  │ │ │ │ ├── isarray@0.0.1 </tspan>
<tspan x="10" y="1322">  │ │ │ │ └── string_decoder@0.10.31 </tspan>
<tspan x="10" y="1338">  │ │ │ └── xtend@3.0.0 </tspan>
<tspan x="10" y="1354">  │ │ └── vinyl@0.2.3 </tspan>
<tspan x="10" y="1370">  │ └── plexer@0.0.1 </tspan>
<tspan x="10" y="1386">  ├─┬ gulp-svg2ttf@2.0.0 </tspan>
<tspan x="10" y="1402">  │ ├── bufferstreams@1.1.1 </tspan>
<tspan x="10" y="1418">  │ └─┬ svg2ttf@4.0.2 </tspan>
<tspan x="10" y="1434">  │   ├─┬ argparse@1.0.9 </tspan>
<tspan x="10" y="1450">  │   │ └── sprintf-js@1.0.3 </tspan>
<tspan x="10" y="1466">  │   ├── cubic2quad@1.1.0 </tspan>
<tspan x="10" y="1482">  │   ├── lodash@4.17.4 </tspan>
<tspan x="10" y="1498">  │   ├── microbuffer@1.0.0 </tspan>
<tspan x="10" y="1514">  │   ├── svgpath@2.2.1 </tspan>
<tspan x="10" y="1530">  │   └── xmldom@0.1.27 </tspan>
<tspan x="10" y="1546">  ├─┬ gulp-svgicons2svgfont@3.0.1 </tspan>
<tspan x="10" y="1562">  │ └─┬ svgicons2svgfont@5.0.0 </tspan>
<tspan x="10" y="1578">  │   ├─┬ commander@2.9.0 </tspan>
<tspan x="10" y="1594">  │   │ └── graceful-readlink@1.0.1 </tspan>
<tspan x="10" y="1610">  │   ├─┬ neatequal@1.0.0 </tspan>
<tspan x="10" y="1626">  │   │ └─┬ varstream@0.3.2 </tspan>
<tspan x="10" y="1642">  │   │   └─┬ readable-stream@1.1.14 </tspan>
<tspan x="10" y="1658">  │   │     ├── isarray@0.0.1 </tspan>
<tspan x="10" y="1674">  │   │     └── string_decoder@0.10.31 </tspan>
<tspan x="10" y="1690">  │   ├── sax@1.2.2 </tspan>
<tspan x="10" y="1706">  │   ├── string.fromcodepoint@0.2.1 </tspan>
<tspan x="10" y="1722">  │   ├── string.prototype.codepointat@0.2.0 </tspan>
<tspan x="10" y="1738">  │   └─┬ svg-pathdata@1.0.4 </tspan>
<tspan x="10" y="1754">  │     └─┬ readable-stream@2.0.6 </tspan>
<tspan x="10" y="1770">  │       └── string_decoder@0.10.31 </tspan>
<tspan x="10" y="1786">  ├─┬ gulp-ttf2eot@1.1.1 </tspan>
<tspan x="10" y="1802">  │ └─┬ ttf2eot@1.3.0 </tspan>
<tspan x="10" y="1818">  │   └─┬ argparse@0.1.16 </tspan>
<tspan x="10" y="1834">  │     ├── underscore@1.7.0 </tspan>
<tspan x="10" y="1850">  │     └── underscore.string@2.4.0 </tspan>
<tspan x="10" y="1866">  ├─┬ gulp-ttf2woff@1.1.0 </tspan>
<tspan x="10" y="1882">  │ └─┬ ttf2woff@1.3.0 </tspan>
<tspan x="10" y="1898">  │   ├── argparse@0.1.16 </tspan>
<tspan x="10" y="1914">  │   └── pako@0.2.9 </tspan>
<tspan x="10" y="1930">  ├─┬ gulp-ttf2woff2@2.0.2 </tspan>
<tspan x="10" y="1946">  │ └─┬ ttf2woff2@2.0.3 </tspan>
<tspan x="10" y="1962">  │   ├── bindings@1.2.1 </tspan>
<tspan x="10" y="1978">  │   ├── nan@2.6.2 </tspan>
<tspan x="10" y="1994">  │   └─┬ node-gyp@3.6.0 </tspan>
<tspan x="10" y="2010">  │     ├── fstream@1.0.11 </tspan>
<tspan x="10" y="2026">  │     ├─┬ glob@7.1.1 </tspan>
<tspan x="10" y="2042">  │     │ ├── fs.realpath@1.0.0 </tspan>
<tspan x="10" y="2058">  │     │ ├─┬ inflight@1.0.6 </tspan>
<tspan x="10" y="2074">  │     │ │ └── wrappy@1.0.2 </tspan>
<tspan x="10" y="2090">  │     │ ├── once@1.4.0 </tspan>
<tspan x="10" y="2106">  │     │ └── path-is-absolute@1.0.1 </tspan>
<tspan x="10" y="2122">  │     ├── graceful-fs@4.1.11 </tspan>
<tspan x="10" y="2138">  │     ├─┬ minimatch@3.0.3 </tspan>
<tspan x="10" y="2154">  │     │ └─┬ brace-expansion@1.1.7 </tspan>
<tspan x="10" y="2170">  │     │   ├── balanced-match@0.4.2 </tspan>
<tspan x="10" y="2186">  │     │   └── concat-map@0.0.1 </tspan>
<tspan x="10" y="2202">  │     ├─┬ mkdirp@0.5.1 </tspan>
<tspan x="10" y="2218">  │     │ └── minimist@0.0.8 </tspan>
<tspan x="10" y="2234">  │     ├─┬ nopt@3.0.6 </tspan>
<tspan x="10" y="2250">  │     │ └── abbrev@1.1.0 </tspan>
<tspan x="10" y="2266">  │     ├─┬ npmlog@4.0.2 </tspan>
<tspan x="10" y="2282">  │     │ ├─┬ are-we-there-yet@1.1.2 </tspan>
<tspan x="10" y="2298">  │     │ │ └── delegates@1.0.0 </tspan>
<tspan x="10" y="2314">  │     │ ├── console-control-strings@1.1.0 </tspan>
<tspan x="10" y="2330">  │     │ ├─┬ gauge@2.7.3 </tspan>
<tspan x="10" y="2346">  │     │ │ ├── aproba@1.1.1 </tspan>
<tspan x="10" y="2362">  │     │ │ ├── has-unicode@2.0.1 </tspan>
<tspan x="10" y="2378">  │     │ │ ├─┬ string-width@1.0.2 </tspan>
<tspan x="10" y="2394">  │     │ │ │ ├── code-point-at@1.1.0 </tspan>
<tspan x="10" y="2410">  │     │ │ │ ├─┬ is-fullwidth-code-point@1.0.0 </tspan>
<tspan x="10" y="2426">  │     │ │ │ │ └── number-is-nan@1.0.1 </tspan>
<tspan x="10" y="2442">  │     │ │ │ └─┬ strip-ansi@3.0.1 </tspan>
<tspan x="10" y="2458">  │     │ │ │   └── ansi-regex@2.1.1 </tspan>
<tspan x="10" y="2474">  │     │ │ ├─┬ strip-ansi@3.0.1 </tspan>
<tspan x="10" y="2490">  │     │ │ │ └── ansi-regex@2.1.1 </tspan>
<tspan x="10" y="2506">  │     │ │ └── wide-align@1.1.0 </tspan>
<tspan x="10" y="2522">  │     │ └── set-blocking@2.0.0 </tspan>
<tspan x="10" y="2538">  │     ├─┬ osenv@0.1.4 </tspan>
<tspan x="10" y="2554">  │     │ ├── os-homedir@1.0.2 </tspan>
<tspan x="10" y="2570">  │     │ └── os-tmpdir@1.0.2 </tspan>
<tspan x="10" y="2586">  │     ├─┬ request@2.81.0 </tspan>
<tspan x="10" y="2602">  │     │ ├── aws-sign2@0.6.0 </tspan>
<tspan x="10" y="2618">  │     │ ├── aws4@1.6.0 </tspan>
<tspan x="10" y="2634">  │     │ ├── caseless@0.12.0 </tspan>
<tspan x="10" y="2650">  │     │ ├─┬ combined-stream@1.0.5 </tspan>
<tspan x="10" y="2666">  │     │ │ └── delayed-stream@1.0.0 </tspan>
<tspan x="10" y="2682">  │     │ ├── extend@3.0.0 </tspan>
<tspan x="10" y="2698">  │     │ ├── forever-agent@0.6.1 </tspan>
<tspan x="10" y="2714">  │     │ ├─┬ form-data@2.1.4 </tspan>
<tspan x="10" y="2730">  │     │ │ └── asynckit@0.4.0 </tspan>
<tspan x="10" y="2746">  │     │ ├─┬ har-validator@4.2.1 </tspan>
<tspan x="10" y="2762">  │     │ │ ├─┬ ajv@4.11.7 </tspan>
<tspan x="10" y="2778">  │     │ │ │ ├── co@4.6.0 </tspan>
<tspan x="10" y="2794">  │     │ │ │ └─┬ json-stable-stringify@1.0.1 </tspan>
<tspan x="10" y="2810">  │     │ │ │   └── jsonify@0.0.0 </tspan>
<tspan x="10" y="2826">  │     │ │ └── har-schema@1.0.5 </tspan>
<tspan x="10" y="2842">  │     │ ├─┬ hawk@3.1.3 </tspan>
<tspan x="10" y="2858">  │     │ │ ├── boom@2.10.1 </tspan>
<tspan x="10" y="2874">  │     │ │ ├── cryptiles@2.0.5 </tspan>
<tspan x="10" y="2890">  │     │ │ ├── hoek@2.16.3 </tspan>
<tspan x="10" y="2906">  │     │ │ └── sntp@1.0.9 </tspan>
<tspan x="10" y="2922">  │     │ ├─┬ http-signature@1.1.1 </tspan>
<tspan x="10" y="2938">  │     │ │ ├── assert-plus@0.2.0 </tspan>
<tspan x="10" y="2954">  │     │ │ ├─┬ jsprim@1.4.0 </tspan>
<tspan x="10" y="2970">  │     │ │ │ ├── assert-plus@1.0.0 </tspan>
<tspan x="10" y="2986">  │     │ │ │ ├── extsprintf@1.0.2 </tspan>
<tspan x="10" y="3002">  │     │ │ │ ├── json-schema@0.2.3 </tspan>
<tspan x="10" y="3018">  │     │ │ │ └── verror@1.3.6 </tspan>
<tspan x="10" y="3034">  │     │ │ └─┬ sshpk@1.13.0 </tspan>
<tspan x="10" y="3050">  │     │ │   ├── asn1@0.2.3 </tspan>
<tspan x="10" y="3066">  │     │ │   ├── assert-plus@1.0.0 </tspan>
<tspan x="10" y="3082">  │     │ │   ├── bcrypt-pbkdf@1.0.1 </tspan>
<tspan x="10" y="3098">  │     │ │   ├─┬ dashdash@1.14.1 </tspan>
<tspan x="10" y="3114">  │     │ │   │ └── assert-plus@1.0.0 </tspan>
<tspan x="10" y="3130">  │     │ │   ├── ecc-jsbn@0.1.1 </tspan>
<tspan x="10" y="3146">  │     │ │   ├─┬ getpass@0.1.6 </tspan>
<tspan x="10" y="3162">  │     │ │   │ └── assert-plus@1.0.0 </tspan>
<tspan x="10" y="3178">  │     │ │   ├── jodid25519@1.0.2 </tspan>
<tspan x="10" y="3194">  │     │ │   ├── jsbn@0.1.1 </tspan>
<tspan x="10" y="3210">  │     │ │   └── tweetnacl@0.14.5 </tspan>
<tspan x="10" y="3226">  │     │ ├── is-typedarray@1.0.0 </tspan>
<tspan x="10" y="3242">  │     │ ├── json-stringify-safe@5.0.1 </tspan>
<tspan x="10" y="3258">  │     │ ├─┬ mime-types@2.1.15 </tspan>
<tspan x="10" y="3274">  │     │ │ └── mime-db@1.27.0 </tspan>
<tspan x="10" y="3290">  │     │ ├── oauth-sign@0.8.2 </tspan>
<tspan x="10" y="3306">  │     │ ├── performance-now@0.2.0 </tspan>
<tspan x="10" y="3322">  │     │ ├── qs@6.4.0 </tspan>
<tspan x="10" y="3338">  │     │ ├── safe-buffer@5.0.1 </tspan>
<tspan x="10" y="3354">  │     │ ├── stringstream@0.0.5 </tspan>
<tspan x="10" y="3370">  │     │ ├─┬ tough-cookie@2.3.2 </tspan>
<tspan x="10" y="3386">  │     │ │ └── punycode@1.4.1 </tspan>
<tspan x="10" y="3402">  │     │ ├── tunnel-agent@0.6.0 </tspan>
<tspan x="10" y="3418">  │     │ └── uuid@3.0.1 </tspan>
<tspan x="10" y="3434">  │     ├── rimraf@2.6.1 </tspan>
<tspan x="10" y="3450">  │     ├── semver@5.3.0 </tspan>
<tspan x="10" y="3466">  │     ├─┬ tar@2.2.1 </tspan>
<tspan x="10" y="3482">  │     │ └── block-stream@0.0.9 </tspan>
<tspan x="10" y="3498">  │     └─┬ which@1.2.14 </tspan>
<tspan x="10" y="3514">  │       └── isexe@2.0.0 </tspan>
<tspan x="10" y="3530">  ├─┬ gulp-util@3.0.8 </tspan>
<tspan x="10" y="3546">  │ ├── array-differ@1.0.0 </tspan>
<tspan x="10" y="3562">  │ ├── array-uniq@1.0.3 </tspan>
<tspan x="10" y="3578">  │ ├── beeper@1.1.1 </tspan>
<tspan x="10" y="3594">  │ ├─┬ chalk@1.1.3 </tspan>
<tspan x="10" y="3610">  │ │ ├── ansi-styles@2.2.1 </tspan>
<tspan x="10" y="3626">  │ │ ├── escape-string-regexp@1.0.5 </tspan>
<tspan x="10" y="3642">  │ │ ├─┬ has-ansi@2.0.0 </tspan>
<tspan x="10" y="3658">  │ │ │ └── ansi-regex@2.1.1 </tspan>
<tspan x="10" y="3674">  │ │ ├── strip-ansi@3.0.1 </tspan>
<tspan x="10" y="3690">  │ │ └── supports-color@2.0.0 </tspan>
<tspan x="10" y="3706">  │ ├── dateformat@2.0.0 </tspan>
<tspan x="10" y="3722">  │ ├─┬ fancy-log@1.3.0 </tspan>
<tspan x="10" y="3738">  │ │ ├─┬ chalk@1.1.3 </tspan>
<tspan x="10" y="3754">  │ │ │ ├── ansi-styles@2.2.1 </tspan>
<tspan x="10" y="3770">  │ │ │ ├─┬ has-ansi@2.0.0 </tspan>
<tspan x="10" y="3786">  │ │ │ │ └── ansi-regex@2.1.1 </tspan>
<tspan x="10" y="3802">  │ │ │ ├── strip-ansi@3.0.1 </tspan>
<tspan x="10" y="3818">  │ │ │ └── supports-color@2.0.0 </tspan>
<tspan x="10" y="3834">  │ │ └── time-stamp@1.0.1 </tspan>
<tspan x="10" y="3850">  │ ├─┬ gulplog@1.0.0 </tspan>
<tspan x="10" y="3866">  │ │ └── glogg@1.0.0 </tspan>
<tspan x="10" y="3882">  │ ├─┬ has-gulplog@0.1.0 </tspan>
<tspan x="10" y="3898">  │ │ └── sparkles@1.0.0 </tspan>
<tspan x="10" y="3914">  │ ├── lodash._reescape@3.0.0 </tspan>
<tspan x="10" y="3930">  │ ├── lodash._reevaluate@3.0.0 </tspan>
<tspan x="10" y="3946">  │ ├── lodash._reinterpolate@3.0.0 </tspan>
<tspan x="10" y="3962">  │ ├─┬ lodash.template@3.6.2 </tspan>
<tspan x="10" y="3978">  │ │ ├── lodash._basecopy@3.0.1 </tspan>
<tspan x="10" y="3994">  │ │ ├── lodash._basetostring@3.0.1 </tspan>
<tspan x="10" y="4010">  │ │ ├── lodash._basevalues@3.0.0 </tspan>
<tspan x="10" y="4026">  │ │ ├── lodash._isiterateecall@3.0.9 </tspan>
<tspan x="10" y="4042">  │ │ ├─┬ lodash.escape@3.2.0 </tspan>
<tspan x="10" y="4058">  │ │ │ └── lodash._root@3.0.1 </tspan>
<tspan x="10" y="4074">  │ │ ├─┬ lodash.keys@3.1.2 </tspan>
<tspan x="10" y="4090">  │ │ │ ├── lodash._getnative@3.9.1 </tspan>
<tspan x="10" y="4106">  │ │ │ ├── lodash.isarguments@3.1.0 </tspan>
<tspan x="10" y="4122">  │ │ │ └── lodash.isarray@3.0.4 </tspan>
<tspan x="10" y="4138">  │ │ ├── lodash.restparam@3.6.1 </tspan>
<tspan x="10" y="4154">  │ │ └── lodash.templatesettings@3.1.1 </tspan>
<tspan x="10" y="4170">  │ ├── minimist@1.2.0 </tspan>
<tspan x="10" y="4186">  │ ├─┬ multipipe@0.1.2 </tspan>
<tspan x="10" y="4202">  │ │ └─┬ duplexer2@0.0.2 </tspan>
<tspan x="10" y="4218">  │ │   └─┬ readable-stream@1.1.14 </tspan>
<tspan x="10" y="4234">  │ │     ├── isarray@0.0.1 </tspan>
<tspan x="10" y="4250">  │ │     └── string_decoder@0.10.31 </tspan>
<tspan x="10" y="4266">  │ ├── object-assign@3.0.0 </tspan>
<tspan x="10" y="4282">  │ ├── replace-ext@0.0.1 </tspan>
<tspan x="10" y="4298">  │ ├─┬ through2@2.0.3 </tspan>
<tspan x="10" y="4314">  │ │ └── xtend@4.0.1 </tspan>
<tspan x="10" y="4330">  │ └─┬ vinyl@0.5.3 </tspan>
<tspan x="10" y="4346">  │   ├── clone@1.0.2 </tspan>
<tspan x="10" y="4362">  │   └── clone-stats@0.0.1 </tspan>
<tspan x="10" y="4378">  ├─┬ plexer@1.0.1 </tspan>
<tspan x="10" y="4394">  │ └── isstream@0.1.2 </tspan>
<tspan x="10" y="4410">  └── streamfilter@1.0.5</tspan>
</text>
</svg>
